<svg xmlns="http://www.w3.org/2000/svg" version="1.2" id="Layer_1" x="0px" y="0px" viewBox="0 0 900 900" enable-background="new 0 0 900 900" xml:space="preserve" preserveAspectRatio="xMidYMid meet" baseProfile="tiny-ps"><title>LEYA</title>
<path fill="#0B243E" opacity="1.000000" stroke="none" d=" M525.000000,901.000000   C350.000000,901.000000 175.500000,901.000000 1.000000,901.000000   C1.000000,601.000000 1.000000,301.000000 1.000000,1.000000   C301.000000,1.000000 601.000000,1.000000 901.000000,1.000000   C901.000000,301.000000 901.000000,601.000000 901.000000,901.000000   C775.833313,901.000000 650.666687,901.000000 525.000000,901.000000  M442.828308,483.626312   C442.828308,481.847687 442.828308,480.069061 442.828308,478.214417   C438.460144,478.214417 434.558044,478.214417 430.825348,478.214417   C429.484344,483.358704 428.561646,488.280579 426.916534,492.947845   C422.132996,506.519287 413.876831,516.962341 398.593567,518.332092   C387.376495,519.337402 375.957153,519.273438 364.717438,518.455872   C355.993256,517.821228 352.200684,512.892334 352.027374,504.011780   C351.705566,487.523438 351.763855,471.027618 351.696716,454.534760   C351.694275,453.931183 352.038055,453.326172 352.143036,452.978363   C360.398254,452.978363 368.391602,452.698730 376.355835,453.060699   C383.632477,453.391388 387.552399,457.153656 388.982849,464.251740   C389.594421,467.286469 389.971924,470.368317 390.456970,473.436340   C394.389984,473.436340 397.996124,473.436340 401.721802,473.436340   C401.721802,454.515350 401.721802,435.835632 401.721802,417.280823   C397.551544,417.280823 393.780792,417.280823 389.941132,417.280823   C389.282501,421.104156 388.788910,424.723938 388.012970,428.282135   C387.050446,432.695953 384.355255,436.325012 379.937561,436.808289   C370.621674,437.827362 361.212219,437.991150 351.992859,438.497559   C351.992859,418.078461 351.992859,398.807983 351.992859,379.938538   C366.643280,379.938538 380.951569,379.849701 395.258118,379.969940   C404.702789,380.049347 411.377991,384.877014 415.421814,393.145172   C417.880676,398.172668 419.648590,403.538055 421.795166,408.922974   C425.385651,408.922974 429.148132,408.922974 433.426544,408.922974   C432.675171,394.156403 431.937073,379.651398 431.207611,365.315613   C384.083618,365.315613 337.681732,365.315613 291.360291,365.315613   C291.360291,369.392548 291.360291,373.135437 291.360291,376.672791   C295.170715,377.107452 298.664215,377.352081 302.102295,377.927765   C311.413452,379.486786 314.562653,383.070679 315.177551,392.562653   C315.338989,395.054626 315.502258,397.552551 315.503906,400.047852   C315.525726,432.869995 315.530579,465.692169 315.498932,498.514282   C315.496033,501.507751 315.351227,504.515686 315.033508,507.491394   C314.164307,515.631897 310.233612,519.712891 302.114471,520.890015   C298.522552,521.410828 294.891266,521.660522 291.379700,522.022827   C291.379700,526.022461 291.379700,529.767578 291.379700,533.626282   C341.473236,533.626282 391.223846,533.626282 441.472717,533.626282   C441.921082,517.153381 442.364166,500.874969 442.828308,483.626312  M698.996765,523.872314   C698.996765,527.122253 698.996765,530.372192 698.996765,533.539917   C725.995667,533.539917 752.240112,533.539917 778.622070,533.539917   C778.622070,529.518799 778.622070,525.802002 778.622070,521.713379   C769.274353,521.954895 762.158569,518.504150 758.051819,510.062622   C756.599731,507.077911 755.207153,504.052917 753.993469,500.965302   C736.312561,455.983856 718.540649,411.037140 701.169800,365.936035   C698.973022,360.232483 695.115234,362.370880 691.578003,361.808167   C687.993469,361.237946 686.368774,362.778748 685.128906,366.156219   C679.234558,382.212402 673.091797,398.178223 666.949219,414.142242   C655.976685,442.659149 645.170959,471.243744 633.819275,499.609497   C629.211914,511.122559 623.259033,522.023621 608.260986,521.656799   C608.260986,525.932373 608.260986,529.690063 608.260986,533.638062   C627.644531,533.638062 646.739319,533.638062 666.148438,533.638062   C666.148438,529.757935 666.148438,526.010376 666.148438,522.017944   C662.844360,521.527466 659.535156,521.249268 656.329346,520.518005   C648.580505,518.750427 645.963623,514.856262 647.952209,507.114899   C649.516174,501.026825 651.781982,495.102295 654.052856,489.227509   C654.476135,488.132599 656.395935,486.949554 657.635864,486.937866   C673.792603,486.785187 689.951782,486.784058 706.108521,486.939789   C707.349121,486.951721 709.222290,488.155823 709.701233,489.276123   C712.374878,495.530090 714.970581,501.843079 717.095154,508.299683   C719.865479,516.718384 717.489685,520.078430 708.846436,521.175232   C705.550903,521.593445 702.298828,522.354431 698.996765,523.872314  M559.892944,467.724609   C560.322754,465.332275 560.071899,462.502075 561.286194,460.614349   C575.773499,438.092621 590.478149,415.710632 605.127197,393.292938   C610.776001,384.648438 617.481384,377.500092 628.705444,377.062958   C628.705444,372.931580 628.705444,369.166412 628.705444,365.330261   C608.086304,365.330261 587.713135,365.330261 567.442200,365.330261   C567.442200,369.403809 567.442200,373.129608 567.442200,376.650482   C571.109863,377.124939 574.436829,377.385651 577.693359,378.012482   C584.185303,379.262115 587.139343,382.741516 585.942383,389.304657   C585.101196,393.917023 583.158997,398.566071 580.726196,402.607452   C572.407715,416.426422 563.650391,429.981110 555.083191,443.650818   C554.675659,444.301056 554.485962,445.087830 553.960876,446.392273   C543.642578,428.812317 534.108521,412.627319 524.651245,396.397614   C523.066772,393.678528 521.555054,390.861908 520.465210,387.921539   C518.377563,382.289520 520.273376,378.882263 526.158936,377.726044   C529.524170,377.064941 533.005127,376.993347 536.519104,376.647980   C536.519104,372.741943 536.519104,369.018524 536.519104,365.376770   C509.994476,365.376770 483.791901,365.376770 457.513916,365.376770   C457.513916,369.389801 457.513916,373.014923 457.513916,377.030029   C468.130920,376.695801 474.381165,382.789886 479.368103,391.151581   C493.676208,415.142120 508.166534,439.023987 522.554321,462.967163   C523.136353,463.935791 523.770813,465.096558 523.762085,466.162750   C523.646606,480.310272 523.548401,494.460388 523.164673,508.602203   C522.987061,515.147705 519.045227,518.980225 512.791809,520.241577   C508.309174,521.145691 503.737488,521.608459 499.265808,522.259338   C499.265808,526.099609 499.265808,529.710144 499.265808,533.575806   C527.555420,533.575806 555.612183,533.575806 583.919312,533.575806   C583.919312,529.598145 583.919312,525.843445 583.919312,522.037109   C581.254578,521.753540 578.774658,521.513000 576.300537,521.222351   C563.874634,519.762634 560.170532,515.792297 559.977478,503.154907   C559.801941,491.663177 559.909973,480.167084 559.892944,467.724609  M276.778046,533.584595   C277.171906,525.305664 277.755127,517.030334 277.911865,508.746887   C278.109650,498.291656 277.959625,487.829834 277.959625,477.223083   C274.246948,477.223083 270.490204,477.223083 266.532562,477.223083   C266.019989,480.000275 265.579803,482.598175 265.057739,485.179504   C261.446136,503.037170 249.119720,515.529785 231.777405,517.731628   C222.574783,518.900085 213.177750,519.119202 203.890305,518.888184   C192.623352,518.607910 188.120346,514.031250 187.957092,502.860168   C187.592010,477.876831 187.581009,452.887665 187.531082,427.900696   C187.507111,415.909546 187.468521,403.908508 187.913712,391.929688   C188.237762,383.210205 191.931671,379.487213 200.617401,377.995361   C204.327499,377.358124 208.098373,377.074829 211.804611,376.635132   C211.804611,372.709656 211.804611,368.977386 211.804611,365.270233   C183.424652,365.270233 155.357605,365.270233 127.264221,365.270233   C127.264221,369.306366 127.264221,373.055145 127.264221,376.904541   C128.343964,376.958282 129.159470,377.008118 129.975677,377.038116   C147.438156,377.679810 151.338531,381.628754 151.355331,398.941132   C151.387650,432.260559 151.372528,465.580017 151.352814,498.899475   C151.351242,501.562317 151.274368,504.234985 151.039658,506.885986   C150.275009,515.522034 146.206100,519.792053 137.650482,520.936218   C134.201920,521.397339 130.727463,521.664795 127.283798,522.018494   C127.283798,525.938477 127.283798,529.695740 127.283798,533.809814   C177.016174,533.809814 226.459473,533.809814 276.778046,533.584595  z"/>
<path fill="#F5F7F9" opacity="1.000000" stroke="none" d=" M442.817780,484.111450   C442.364166,500.874969 441.921082,517.153381 441.472717,533.626282   C391.223846,533.626282 341.473236,533.626282 291.379700,533.626282   C291.379700,529.767578 291.379700,526.022461 291.379700,522.022827   C294.891266,521.660522 298.522552,521.410828 302.114471,520.890015   C310.233612,519.712891 314.164307,515.631897 315.033508,507.491394   C315.351227,504.515686 315.496033,501.507751 315.498932,498.514282   C315.530579,465.692169 315.525726,432.869995 315.503906,400.047852   C315.502258,397.552551 315.338989,395.054626 315.177551,392.562653   C314.562653,383.070679 311.413452,379.486786 302.102295,377.927765   C298.664215,377.352081 295.170715,377.107452 291.360291,376.672791   C291.360291,373.135437 291.360291,369.392548 291.360291,365.315613   C337.681732,365.315613 384.083618,365.315613 431.207611,365.315613   C431.937073,379.651398 432.675171,394.156403 433.426544,408.922974   C429.148132,408.922974 425.385651,408.922974 421.795166,408.922974   C419.648590,403.538055 417.880676,398.172668 415.421814,393.145172   C411.377991,384.877014 404.702789,380.049347 395.258118,379.969940   C380.951569,379.849701 366.643280,379.938538 351.992859,379.938538   C351.992859,398.807983 351.992859,418.078461 351.992859,438.497559   C361.212219,437.991150 370.621674,437.827362 379.937561,436.808289   C384.355255,436.325012 387.050446,432.695953 388.012970,428.282135   C388.788910,424.723938 389.282501,421.104156 389.941132,417.280823   C393.780792,417.280823 397.551544,417.280823 401.721802,417.280823   C401.721802,435.835632 401.721802,454.515350 401.721802,473.436340   C397.996124,473.436340 394.389984,473.436340 390.456970,473.436340   C389.971924,470.368317 389.594421,467.286469 388.982849,464.251740   C387.552399,457.153656 383.632477,453.391388 376.355835,453.060699   C368.391602,452.698730 360.398254,452.978363 352.143036,452.978363   C352.038055,453.326172 351.694275,453.931183 351.696716,454.534760   C351.763855,471.027618 351.705566,487.523438 352.027374,504.011780   C352.200684,512.892334 355.993256,517.821228 364.717438,518.455872   C375.957153,519.273438 387.376495,519.337402 398.593567,518.332092   C413.876831,516.962341 422.132996,506.519287 426.916534,492.947845   C428.561646,488.280579 429.484344,483.358704 430.825348,478.214417   C434.558044,478.214417 438.460144,478.214417 442.828308,478.214417   C442.828308,480.069061 442.828308,481.847687 442.817780,484.111450  z"/>
<path fill="#F5F7F9" opacity="1.000000" stroke="none" d=" M699.011841,523.415771   C702.298828,522.354431 705.550903,521.593445 708.846436,521.175232   C717.489685,520.078430 719.865479,516.718384 717.095154,508.299683   C714.970581,501.843079 712.374878,495.530090 709.701233,489.276123   C709.222290,488.155823 707.349121,486.951721 706.108521,486.939789   C689.951782,486.784058 673.792603,486.785187 657.635864,486.937866   C656.395935,486.949554 654.476135,488.132599 654.052856,489.227509   C651.781982,495.102295 649.516174,501.026825 647.952209,507.114899   C645.963623,514.856262 648.580505,518.750427 656.329346,520.518005   C659.535156,521.249268 662.844360,521.527466 666.148438,522.017944   C666.148438,526.010376 666.148438,529.757935 666.148438,533.638062   C646.739319,533.638062 627.644531,533.638062 608.260986,533.638062   C608.260986,529.690063 608.260986,525.932373 608.260986,521.656799   C623.259033,522.023621 629.211914,511.122559 633.819275,499.609497   C645.170959,471.243744 655.976685,442.659149 666.949219,414.142242   C673.091797,398.178223 679.234558,382.212402 685.128906,366.156219   C686.368774,362.778748 687.993469,361.237946 691.578003,361.808167   C695.115234,362.370880 698.973022,360.232483 701.169800,365.936035   C718.540649,411.037140 736.312561,455.983856 753.993469,500.965302   C755.207153,504.052917 756.599731,507.077911 758.051819,510.062622   C762.158569,518.504150 769.274353,521.954895 778.622070,521.713379   C778.622070,525.802002 778.622070,529.518799 778.622070,533.539917   C752.240112,533.539917 725.995667,533.539917 698.996765,533.539917   C698.996765,530.372192 698.996765,527.122253 699.011841,523.415771  M702.507751,469.995239   C695.598022,452.537567 688.688232,435.079926 681.425354,416.730255   C674.053040,436.334320 667.055908,454.940643 659.972534,473.776245   C674.801697,473.776245 689.180664,473.776245 703.780579,473.776245   C703.415955,472.586151 703.129333,471.650757 702.507751,469.995239  z"/>
<path fill="#F5F7F9" opacity="1.000000" stroke="none" d=" M559.893005,468.198761   C559.909973,480.167084 559.801941,491.663177 559.977478,503.154907   C560.170532,515.792297 563.874634,519.762634 576.300537,521.222351   C578.774658,521.513000 581.254578,521.753540 583.919312,522.037109   C583.919312,525.843445 583.919312,529.598145 583.919312,533.575806   C555.612183,533.575806 527.555420,533.575806 499.265808,533.575806   C499.265808,529.710144 499.265808,526.099609 499.265808,522.259338   C503.737488,521.608459 508.309174,521.145691 512.791809,520.241577   C519.045227,518.980225 522.987061,515.147705 523.164673,508.602203   C523.548401,494.460388 523.646606,480.310272 523.762085,466.162750   C523.770813,465.096558 523.136353,463.935791 522.554321,462.967163   C508.166534,439.023987 493.676208,415.142120 479.368103,391.151581   C474.381165,382.789886 468.130920,376.695801 457.513916,377.030029   C457.513916,373.014923 457.513916,369.389801 457.513916,365.376770   C483.791901,365.376770 509.994476,365.376770 536.519104,365.376770   C536.519104,369.018524 536.519104,372.741943 536.519104,376.647980   C533.005127,376.993347 529.524170,377.064941 526.158936,377.726044   C520.273376,378.882263 518.377563,382.289520 520.465210,387.921539   C521.555054,390.861908 523.066772,393.678528 524.651245,396.397614   C534.108521,412.627319 543.642578,428.812317 553.960876,446.392273   C554.485962,445.087830 554.675659,444.301056 555.083191,443.650818   C563.650391,429.981110 572.407715,416.426422 580.726196,402.607452   C583.158997,398.566071 585.101196,393.917023 585.942383,389.304657   C587.139343,382.741516 584.185303,379.262115 577.693359,378.012482   C574.436829,377.385651 571.109863,377.124939 567.442200,376.650482   C567.442200,373.129608 567.442200,369.403809 567.442200,365.330261   C587.713135,365.330261 608.086304,365.330261 628.705444,365.330261   C628.705444,369.166412 628.705444,372.931580 628.705444,377.062958   C617.481384,377.500092 610.776001,384.648438 605.127197,393.292938   C590.478149,415.710632 575.773499,438.092621 561.286194,460.614349   C560.071899,462.502075 560.322754,465.332275 559.893005,468.198761  z"/>
<path fill="#F5F7F9" opacity="1.000000" stroke="none" d=" M276.340393,533.697205   C226.459473,533.809814 177.016174,533.809814 127.283798,533.809814   C127.283798,529.695740 127.283798,525.938477 127.283798,522.018494   C130.727463,521.664795 134.201920,521.397339 137.650482,520.936218   C146.206100,519.792053 150.275009,515.522034 151.039658,506.885986   C151.274368,504.234985 151.351242,501.562317 151.352814,498.899475   C151.372528,465.580017 151.387650,432.260559 151.355331,398.941132   C151.338531,381.628754 147.438156,377.679810 129.975677,377.038116   C129.159470,377.008118 128.343964,376.958282 127.264221,376.904541   C127.264221,373.055145 127.264221,369.306366 127.264221,365.270233   C155.357605,365.270233 183.424652,365.270233 211.804611,365.270233   C211.804611,368.977386 211.804611,372.709656 211.804611,376.635132   C208.098373,377.074829 204.327499,377.358124 200.617401,377.995361   C191.931671,379.487213 188.237762,383.210205 187.913712,391.929688   C187.468521,403.908508 187.507111,415.909546 187.531082,427.900696   C187.581009,452.887665 187.592010,477.876831 187.957092,502.860168   C188.120346,514.031250 192.623352,518.607910 203.890305,518.888184   C213.177750,519.119202 222.574783,518.900085 231.777405,517.731628   C249.119720,515.529785 261.446136,503.037170 265.057739,485.179504   C265.579803,482.598175 266.019989,480.000275 266.532562,477.223083   C270.490204,477.223083 274.246948,477.223083 277.959625,477.223083   C277.959625,487.829834 278.109650,498.291656 277.911865,508.746887   C277.755127,517.030334 277.171906,525.305664 276.340393,533.697205  z"/>
<path fill="#0E2740" opacity="1.000000" stroke="none" d=" M702.675232,470.355316   C703.129333,471.650757 703.415955,472.586151 703.780579,473.776245   C689.180664,473.776245 674.801697,473.776245 659.972534,473.776245   C667.055908,454.940643 674.053040,436.334320 681.425354,416.730255   C688.688232,435.079926 695.598022,452.537567 702.675232,470.355316  z"/>
</svg>
